<?xml version="1.0" encoding="UTF-8" standalone="no"?>
<svg
  <g
     inkscape:label="Layer 1"
     inkscape:groupmode="layer"
     id="layer1"
     transform="translate(-15.219743,-52.009746)">
    <g
       id="python">
      <path
         d="m 162.48816,113.774 c -0.32993,0.01 -0.66895,0.0809 -1.00718,0.22117 -1.52889,0.63389 -1.86592,4.0989 -0.51211,5.26687 0.8285,0.71477 2.17472,0.97716 2.93264,0.57153 0.50399,-0.26971 0.64854,-0.22133 0.64854,0.21756 0,0.85878 -0.68427,1.95706 -1.80868,2.90319 -0.55747,0.46907 -1.01337,1.01158 -1.01337,1.20561 0,0.66886 2.29468,-1.53627 3.00808,-2.89078 l 0.71469,-1.35754 0.80925,1.1808 c 0.71184,1.03888 0.76407,1.34348 0.43356,2.5337 -0.56448,2.03291 -0.49645,2.23299 0.76688,2.25413 0.63059,0.0106 1.86108,0.30195 2.7342,0.6475 2.0038,0.79305 2.75173,0.47262 0.86972,-0.37259 -1.03149,-0.46323 -1.19561,-0.63088 -0.6258,-0.63768 0.4251,-0.005 0.88513,-0.19089 1.02267,-0.41341 0.18007,-0.29137 -0.20894,-0.35322 -1.38958,-0.22015 l -1.63917,0.185 -0.5023,-1.69033 c -0.27605,-0.92955 -0.76554,-2.09253 -1.08779,-2.58434 l -0.58601,-0.894 2.58641,0.14573 2.5864,0.14572 -2.11666,-0.45371 c -4.131,-0.88581 -3.93375,-0.77411 -3.77393,-2.14303 0.25153,-2.15452 -1.26883,-3.87495 -3.05046,-3.82095 z" />     </g>
  </g>
</svg>
