<?xml version="1.0" encoding="UTF-8" standalone="no"?>
<svg
   <svg xmlns="http://www.w3.org/2000/svg" viewBox="0 0 13 13">
  <defs
     id="defs2" />
  <sodipodi:namedview
     id="base"
     pagecolor="#ffffff"
     bordercolor="#666666"
     borderopacity="1.0"
     inkscape:pageopacity="0.0"
     inkscape:pageshadow="2"
     inkscape:zoom="1.979899"
     inkscape:cx="320.59641"
     inkscape:cy="237.31984"
     inkscape:document-units="mm"
     inkscape:current-layer="layer1"
     inkscape:document-rotation="0"
     showgrid="false"
     fit-margin-top="100"
     fit-margin-left="100"
     fit-margin-right="100"
     fit-margin-bottom="100"
     inkscape:window-width="2056"
     inkscape:window-height="1286"
     inkscape:window-x="0"
     inkscape:window-y="43"
     inkscape:window-maximized="0" />
  <metadata
     id="metadata5">
    <rdf:RDF>
      <cc:Work
         rdf:about="">
        <dc:format>image/svg+xml</dc:format>
        <dc:type
           rdf:resource="http://purl.org/dc/dcmitype/StillImage" />
        <dc:title></dc:title>
      </cc:Work>
    </rdf:RDF>
  </metadata>
  <g
     inkscape:label="Layer 1"
     inkscape:groupmode="layer"
     id="layer1"
     transform="translate(-15.219743,-52.009746)">
    <g
       id="python">
      <path
         d="M 4 8 L 10 1 L 13 0 L 12 3 L 5 9 C 6 10 6 11 7 10 C 7 11 8 12 7 12 A 1.42 1.42 0 0 1 6 13 A 5 5 0 0 0 4 10 Q 3.5 9.9 3.5 10.5 T 2 11.8 T 1.2 11 T 2.5 9.5 T 3 9 A 5 5 90 0 0 0 7 A 1.42 1.42 0 0 1 1 6 C 1 5 2 6 3 6 C 2 7 3 7 4 8 M 10 1 L 10 3 L 12 3 L 10.2 2.8 L 10 1" fill="#000000"/>
		 </g>
</svg>
