<?xml version="1.0" encoding="UTF-8" standalone="no"?>
<svg
   xmlns:dc="http://purl.org/dc/elements/1.1/"
   xmlns:cc="http://creativecommons.org/ns#"
   xmlns:rdf="http://www.w3.org/1999/02/22-rdf-syntax-ns#"
   xmlns:svg="http://www.w3.org/2000/svg"
   xmlns="http://www.w3.org/2000/svg"
   xmlns:sodipodi="http://sodipodi.sourceforge.net/DTD/sodipodi-0.dtd"
   xmlns:inkscape="http://www.inkscape.org/namespaces/inkscape"
   width="100mm"
   height="100mm"
   viewBox="0 0 182.73871 112.5292"
   version="1.1"
   id="svg8"
   inkscape:version="1.0.2 (e86c8708, 2021-01-15)"
   sodipodi:docname="antigravity.svg">
  <defs
     id="defs2" />
  <sodipodi:namedview
     id="base"
     pagecolor="#ffffff"
     bordercolor="#666666"
     borderopacity="1.0"
     inkscape:pageopacity="0.0"
     inkscape:pageshadow="2"
     inkscape:zoom="1.979899"
     inkscape:cx="320.59641"
     inkscape:cy="237.31984"
     inkscape:document-units="mm"
     inkscape:current-layer="layer1"
     inkscape:document-rotation="0"
     showgrid="false"
     fit-margin-top="100"
     fit-margin-left="100"
     fit-margin-right="100"
     fit-margin-bottom="100"
     inkscape:window-width="2056"
     inkscape:window-height="1286"
     inkscape:window-x="0"
     inkscape:window-y="43"
     inkscape:window-maximized="0" />
  <metadata
     id="metadata5">
    <rdf:RDF>
      <cc:Work
         rdf:about="">
        <dc:format>image/svg+xml</dc:format>
        <dc:type
           rdf:resource="http://purl.org/dc/dcmitype/StillImage" />
        <dc:title></dc:title>
      </cc:Work>
    </rdf:RDF>
  </metadata>
  <g
     inkscape:label="Layer 1"
     inkscape:groupmode="layer"
     id="layer1"
     transform="translate(-15.219743,-52.009746)">
    <g
       id="python">
			<path d="M5 5788 c-3 -7 -4 -1104 -3 -2438 l3 -2425 5105 0 5105 0 0 2435 0
2435 -5103 3 c-4077 2 -5104 0 -5107 -10z m10175 -2428 l0 -2400 -5070 0
-5070 0 0 2400 0 2400 5070 0 5070 0 0 -2400z"/>
<path d="M7640 5409 c-162 -5 -317 -13 -345 -17 l-50 -7 -8 -110 c-4 -61 -8
-353 -10 -650 l-2 -540 25 -37 24 -36 279 3 278 3 -7 -177 c-7 -189 -7 -191
44 -204 16 -4 30 1 44 15 20 20 21 29 16 182 -3 89 -4 167 -1 174 4 9 77 12
319 12 l314 0 0 -189 c0 -185 1 -190 22 -205 28 -20 33 -20 52 0 13 13 16 46
16 204 l0 189 259 -6 259 -6 7 21 c9 29 9 863 -1 1114 -7 194 -7 197 -33 229
l-27 32 -154 2 c-85 1 -351 4 -590 7 -239 4 -568 2 -730 -3z m1302 -34 c153
-2 188 -9 188 -37 0 -6 -217 -8 -582 -5 -321 2 -726 1 -901 -2 -292 -6 -320
-5 -334 11 -14 16 -13 18 8 22 59 13 653 24 1039 18 234 -3 496 -6 582 -7z
m-1639 -299 c-6 -116 -10 -396 -10 -622 l2 -411 -20 31 c-19 30 -20 49 -19
491 1 253 4 531 8 618 l8 157 21 -26 c20 -26 20 -31 10 -238z m1836 229 c2 -3
6 -286 9 -630 l5 -625 -24 -1 c-13 -1 -425 -2 -916 -3 l-891 -1 -7 65 c-15
139 4 1169 22 1190 12 13 1788 18 1802 5z m-1244 -1432 c3 -82 4 -160 0 -175
-11 -42 -35 -35 -37 10 -2 62 4 297 9 305 15 24 21 -9 28 -140z m723 -33 c-4
-242 -21 -244 -28 -2 -5 169 -4 182 13 182 16 0 17 -13 15 -180z"/>
<path d="M7761 5164 c-13 -9 -32 -35 -42 -58 -55 -121 21 -225 110 -150 58 48
66 150 16 200 -28 28 -52 30 -84 8z m66 -36 c18 -23 23 -66 12 -95 -14 -38
-48 -73 -71 -73 -39 0 -48 104 -12 158 16 24 56 30 71 10z"/>
<path d="M7911 5148 c-6 -17 -14 -62 -17 -99 -6 -64 -5 -69 20 -94 25 -25 31
-26 79 -20 29 4 59 13 67 21 17 16 17 16 -71 14 -53 -1 -57 0 -63 24 -6 25 7
137 20 170 4 10 1 16 -9 16 -8 0 -20 -14 -26 -32z"/>
<path d="M8130 5120 c-22 -33 -44 -60 -48 -60 -4 0 -18 18 -32 40 -23 38 -50
53 -50 29 0 -6 18 -38 40 -71 27 -41 40 -71 40 -94 0 -24 5 -34 15 -34 11 0
15 12 15 50 0 44 6 60 45 117 41 60 48 83 25 83 -5 0 -28 -27 -50 -60z"/>
<path d="M8423 5168 c-22 -11 -23 -17 -23 -125 0 -94 3 -113 15 -113 11 0 15
12 15 50 0 47 2 50 25 50 38 0 90 25 109 51 l16 23 0 -24 c3 -126 11 -161 30
-130 11 17 13 132 4 179 -7 35 -34 42 -34 9 l0 -22 -15 21 c-15 21 -72 44
-105 42 -8 0 -25 -5 -37 -11z m86 -29 c17 -6 31 -17 31 -23 0 -22 -38 -48 -72
-49 -31 -2 -33 0 -36 32 -5 49 18 61 77 40z"/>
<path d="M8701 5164 c-29 -21 -60 -88 -61 -131 0 -76 51 -115 116 -88 19 8 34
20 34 28 0 12 -7 12 -38 4 -52 -14 -70 -5 -78 37 -5 27 0 47 17 83 27 53 44
64 54 34 9 -30 38 -28 30 2 -7 20 -31 47 -45 47 -3 0 -16 -7 -29 -16z"/>
<path d="M8196 5134 c-3 -9 -6 -51 -6 -95 0 -64 3 -79 15 -79 12 0 15 15 15
78 l0 77 26 -32 c30 -39 49 -41 82 -10 l24 22 -7 -68 c-5 -49 -3 -72 6 -83 21
-25 29 3 29 103 0 107 -10 121 -51 75 -16 -18 -33 -32 -38 -32 -5 0 -19 14
-31 30 -23 33 -54 39 -64 14z"/>
<path d="M7636 4867 c-44 -25 -69 -57 -58 -74 5 -7 32 -16 61 -20 68 -10 84
-31 55 -70 -29 -38 -51 -40 -85 -7 -21 20 -32 25 -40 17 -8 -8 0 -21 26 -48
30 -30 42 -35 64 -30 37 8 81 59 81 93 0 42 -20 61 -75 76 l-50 13 35 21 c19
12 45 22 58 22 13 0 22 6 22 15 0 22 -48 18 -94 -8z"/>
<path d="M8819 4867 c-62 -42 -78 -116 -36 -178 40 -60 113 -65 142 -9 19 36
19 45 -1 64 -20 21 -74 21 -74 1 0 -9 9 -15 25 -15 35 0 34 -36 -1 -52 -24
-11 -29 -9 -55 20 -37 41 -38 80 -2 122 24 30 30 32 70 26 34 -4 43 -2 43 9 0
17 -30 35 -58 35 -10 0 -34 -10 -53 -23z"/>
<path d="M7930 4835 c0 -24 -5 -68 -11 -97 -11 -51 -12 -52 -27 -30 -19 28
-33 28 -62 -3 -12 -13 -26 -22 -31 -20 -4 3 -10 43 -14 90 -6 66 -11 85 -23
85 -12 0 -14 -13 -10 -83 3 -46 11 -94 17 -105 14 -27 47 -28 74 -4 15 12 21
14 24 5 3 -7 15 -13 29 -13 38 0 56 39 62 135 4 74 3 85 -12 85 -12 0 -16 -10
-16 -45z"/>
<path d="M8164 4833 l-38 -46 -32 37 c-18 21 -37 35 -43 32 -27 -17 -23 -192
6 -203 20 -8 21 -4 14 58 -9 74 -5 82 24 63 30 -20 57 -12 88 26 l25 29 -6
-86 c-4 -71 -3 -85 9 -81 15 5 36 175 25 203 -10 26 -33 16 -72 -32z"/>
<path d="M8282 4868 c-17 -17 -16 -231 1 -226 8 3 13 33 15 91 1 48 5 87 8 87
4 0 15 -11 26 -25 28 -36 60 -32 97 13 l30 37 1 -92 c0 -76 3 -93 15 -93 11 0
15 14 17 58 3 119 -6 162 -34 162 -6 0 -27 -18 -48 -41 l-37 -41 -28 34 c-35
42 -49 50 -63 36z"/>
<path d="M8580 4856 c-17 -22 -3 -206 16 -206 9 0 14 20 16 73 l3 72 32 -61
c63 -120 89 -110 95 36 2 79 1 95 -12 95 -12 0 -16 -18 -20 -85 l-5 -85 -38
72 c-21 39 -47 79 -56 87 -16 15 -20 15 -31 2z"/>
<path d="M7980 4756 c0 -58 4 -107 9 -110 15 -10 21 22 21 120 0 77 -3 94 -15
94 -12 0 -15 -18 -15 -104z"/>
<path d="M8522 4748 c2 -67 7 -113 13 -113 6 0 11 46 13 113 2 96 0 112 -13
112 -13 0 -15 -16 -13 -112z"/>
<path d="M7654 4445 c-71 -75 -73 -207 -4 -235 34 -14 92 7 110 39 13 26 0 28
-35 5 -38 -25 -78 -15 -88 22 -13 46 16 139 50 161 25 16 26 16 44 -5 23 -29
36 -9 15 23 -23 35 -53 31 -92 -10z"/>
<path d="M7811 4447 c-6 -8 -13 -64 -16 -125 -4 -92 -2 -112 9 -112 9 0 17 18
21 52 l8 53 47 -52 c26 -29 50 -49 54 -46 14 14 4 36 -35 78 -23 25 -40 47
-38 48 2 2 17 7 34 13 16 5 36 22 45 37 14 27 14 29 -9 48 -27 22 -103 26
-120 6z m95 -29 c9 -14 -23 -38 -53 -38 -18 0 -23 6 -23 25 0 22 4 25 34 25
19 0 38 -5 42 -12z"/>
<path d="M7975 4398 c-29 -63 -34 -148 -9 -172 38 -38 117 -8 151 57 l16 32 9
-32 c14 -53 70 -78 119 -53 14 8 25 7 43 -5 30 -20 46 -3 22 23 -10 12 -12 22
-6 32 20 31 11 85 -21 128 -25 34 -37 42 -63 42 -34 0 -62 -23 -86 -69 l-12
-24 -13 31 c-15 34 -60 62 -100 62 -22 0 -30 -9 -50 -52z m82 6 c14 13 43 -28
43 -62 0 -61 -96 -133 -114 -86 -11 29 -6 79 14 123 17 37 22 42 35 31 9 -7
18 -10 22 -6z m173 -5 c0 -15 4 -19 19 -14 22 7 51 -27 51 -61 0 -30 -11 -36
-32 -17 -14 12 -21 14 -30 5 -9 -9 -7 -16 6 -31 15 -17 15 -19 1 -25 -9 -3
-23 -6 -30 -6 -46 0 -62 96 -24 144 25 31 39 33 39 5z"/>
<path d="M8360 4431 c-5 -11 -10 -53 -10 -94 0 -113 43 -155 110 -107 34 24
70 95 70 136 0 34 -25 74 -46 74 -17 0 -19 -27 -2 -32 7 -3 13 -22 13 -44 0
-62 -61 -135 -96 -114 -11 7 -14 32 -14 105 0 95 -5 112 -25 76z"/>
<path d="M8571 4442 c-23 -7 -24 -11 -25 -119 l-1 -112 75 6 c83 6 85 7 75 22
-3 6 -31 11 -61 11 l-54 0 0 34 c0 30 4 35 31 41 36 8 33 29 -4 33 -21 3 -27
9 -27 28 0 26 4 27 82 28 27 1 48 -3 48 -8 0 -4 9 -6 20 -3 18 5 19 -1 22 -91
2 -65 7 -97 16 -100 9 -3 12 14 12 65 0 37 3 85 6 106 7 37 7 37 55 37 39 0
49 3 49 16 0 15 -10 16 -82 10 -89 -8 -88 -8 -163 -1 -27 2 -61 1 -74 -3z"/>
<path d="M1085 5399 c-159 -3 -378 -7 -486 -8 l-196 -1 -7 -312 c-4 -172 -9
-468 -12 -657 l-5 -344 27 -28 c27 -28 30 -29 128 -29 56 1 162 5 236 10 74 5
145 7 158 3 l24 -6 -3 -186 -3 -186 27 -15 c60 -34 74 11 76 262 l1 126 68 4
c37 2 146 0 242 -4 96 -4 196 -4 222 -1 l46 5 8 -48 c4 -27 4 -113 1 -192 l-6
-143 24 -11 c18 -8 32 -8 49 0 23 10 24 16 31 147 4 75 5 158 3 184 l-5 49
136 4 c75 2 205 1 290 -4 84 -4 156 -6 160 -4 3 2 5 177 3 388 -1 210 -2 511
-1 668 l1 285 -24 22 c-23 21 -28 21 -473 25 -247 2 -580 1 -740 -3z m1189
-44 c7 -19 92 -17 -949 -20 -595 -1 -844 1 -854 9 -19 15 260 21 1110 24 603
2 688 0 693 -13z m-1812 -158 c-1 -62 -6 -240 -11 -396 -4 -156 -8 -387 -7
-513 1 -125 -2 -228 -6 -228 -24 0 -26 101 -13 858 7 392 9 423 24 408 13 -14
16 -36 13 -129z m1823 -187 c0 -168 3 -386 6 -485 4 -99 4 -249 2 -333 l-5
-154 -26 7 c-27 7 -842 19 -1227 19 -116 0 -289 -3 -386 -8 l-176 -8 -6 53
c-10 79 -8 340 4 709 6 179 11 364 12 412 l2 88 250 3 c138 2 543 3 900 3
l650 -1 0 -305z m-1268 -1155 c-3 -96 -9 -180 -12 -185 -18 -30 -25 18 -25
181 0 177 0 179 22 179 21 0 21 -1 15 -175z m688 118 c6 -44 -3 -290 -12 -305
-2 -4 -9 -5 -16 -2 -9 3 -12 51 -12 179 0 155 2 175 16 175 12 0 19 -13 24
-47z"/>
<path d="M717 5208 c-13 -11 -16 -31 -14 -120 1 -58 5 -109 9 -113 3 -4 25 -9
47 -12 35 -5 44 -2 70 24 26 27 30 28 34 11 9 -31 26 -20 33 22 7 41 11 44 75
55 32 6 37 4 42 -17 4 -12 7 -37 7 -54 0 -30 23 -53 34 -35 11 18 -16 138 -39
173 -29 43 -69 73 -86 63 -16 -10 -48 -87 -58 -138 -7 -31 -9 -35 -10 -15 -1
18 -10 34 -26 44 l-25 16 25 20 c27 21 33 56 13 76 -16 16 -110 15 -131 0z
m112 -24 c8 -8 -32 -43 -60 -53 -27 -9 -29 -8 -29 15 0 13 0 27 -1 32 -1 17
72 22 90 6z m161 -65 c0 -7 -69 -23 -75 -17 -2 2 3 18 11 37 l14 34 25 -23
c14 -13 25 -27 25 -31z m-204 -39 c49 0 56 -57 9 -78 -41 -19 -55 -6 -55 51 0
40 3 48 12 39 7 -7 22 -12 34 -12z"/>
<path d="M1300 5211 c-55 -11 -60 -17 -60 -77 0 -54 0 -54 -20 -34 -23 23 -61
34 -95 28 -14 -3 -25 -2 -25 2 0 11 49 41 79 50 14 3 25 11 24 16 -4 18 -44
15 -82 -7 -80 -45 -78 -107 4 -95 56 9 84 -11 68 -47 -19 -41 -46 -50 -77 -26
-15 12 -29 19 -32 16 -12 -12 9 -49 33 -58 35 -13 70 -1 98 35 16 19 25 25 25
16 0 -9 -5 -21 -11 -27 -19 -19 5 -23 85 -16 63 5 76 9 74 22 -3 13 -15 15
-62 13 l-57 -3 3 33 c3 29 7 33 36 36 46 5 43 32 -3 32 -30 0 -35 3 -35 24 0
28 19 37 84 40 28 2 41 7 41 17 0 16 -42 21 -95 10z"/>
<path d="M1424 5196 c-19 -13 -20 -23 -16 -103 5 -98 18 -123 63 -123 41 0 58
9 74 41 17 33 7 72 -21 83 -16 6 -14 10 14 32 36 29 41 58 13 74 -28 15 -103
12 -127 -4z m106 -25 c0 -14 -25 -31 -59 -41 -32 -9 -38 -1 -25 34 7 17 84 24
84 7z m-10 -131 c0 -24 -34 -43 -60 -35 -16 5 -20 15 -20 50 l0 43 40 -19 c26
-13 40 -26 40 -39z"/>
<path d="M1786 5194 c-14 -37 -17 -149 -4 -174 12 -23 20 -25 83 -27 39 0 78
-4 87 -8 30 -12 143 0 143 16 0 11 -14 13 -62 11 -78 -4 -85 6 -76 112 5 64 4
76 -9 76 -16 0 -28 -62 -28 -142 l0 -38 -49 0 c-28 0 -53 5 -57 12 -9 13 -7
110 2 150 4 21 2 28 -9 28 -8 0 -18 -7 -21 -16z"/>
<path d="M1626 5181 c-11 -17 -76 -190 -76 -201 0 -25 28 -6 42 28 14 36 19
39 63 45 27 4 50 5 52 3 3 -2 7 -23 10 -45 7 -50 33 -57 33 -10 0 52 -21 107
-57 149 -34 39 -56 49 -67 31z m49 -61 c21 -24 20 -25 -22 -35 -37 -7 -38 -6
-21 30 14 30 19 31 43 5z"/>
<path d="M961 4802 c-19 -10 -41 -28 -48 -39 -20 -30 8 -57 51 -50 42 6 56 -1
56 -27 0 -28 -35 -66 -60 -66 -10 0 -28 12 -39 27 -12 14 -24 23 -27 20 -13
-13 7 -54 31 -65 43 -20 71 -14 99 19 50 59 23 137 -44 127 -57 -9 -19 28 43
41 15 3 29 11 30 16 4 18 -57 16 -92 -3z"/>
<path d="M1110 4800 c-28 -28 -40 -63 -40 -113 0 -50 7 -63 41 -76 30 -11 105
18 116 45 5 12 9 9 19 -15 16 -39 56 -56 103 -44 55 13 52 34 -5 31 -36 -1
-50 3 -61 18 -19 26 -9 72 25 107 22 24 33 28 60 23 27 -4 33 -2 30 12 -2 12
-15 18 -40 20 -30 3 -42 -3 -73 -33 -20 -21 -37 -35 -38 -33 -2 1 -9 15 -16
29 -24 49 -87 63 -121 29z m94 -51 c17 -40 11 -64 -22 -89 -35 -28 -70 -26
-82 5 -9 24 -8 33 12 88 9 22 16 27 45 27 29 0 36 -5 47 -31z"/>
<path d="M1471 4804 c-30 -21 -60 -89 -61 -134 0 -77 59 -103 130 -58 32 20
33 23 13 26 -12 2 -31 -2 -42 -7 -30 -16 -49 -13 -62 10 -24 46 36 161 76 145
12 -4 16 -1 13 12 -4 23 -38 26 -67 6z"/>
<path d="M1785 4806 c-15 -11 -19 -30 -22 -120 -3 -90 -1 -106 12 -106 11 0
15 11 16 38 1 78 10 80 71 13 32 -34 62 -61 67 -61 24 0 9 33 -35 80 -26 28
-41 50 -34 50 6 0 25 9 41 21 35 25 40 72 10 89 -28 14 -104 12 -126 -4z m112
-33 c5 -14 -31 -38 -69 -47 -26 -6 -28 -4 -28 22 0 16 3 32 7 36 11 11 86 2
90 -11z"/>
<path d="M1587 4798 c-2 -7 -4 -58 -3 -113 l1 -100 57 -3 c59 -3 103 11 92 30
-4 6 -26 8 -60 3 l-54 -6 0 40 c0 39 2 41 30 41 20 0 30 5 30 15 0 10 -10 15
-30 15 -25 0 -30 4 -30 24 0 29 27 41 75 32 36 -7 58 10 34 25 -22 14 -136 11
-142 -3z"/>
<path d="M631 4425 c-51 -6 -86 -15 -89 -22 -2 -9 9 -13 37 -13 l40 0 3 -95
c4 -130 22 -128 26 3 l3 102 34 0 c34 0 55 16 39 29 -5 3 -47 2 -93 -4z"/>
<path d="M790 4418 c-19 -5 -39 -13 -45 -18 -6 -5 -8 -45 -5 -102 l5 -93 70 0
c56 0 70 3 70 15 0 12 -12 14 -57 12 l-58 -2 0 34 c0 32 2 35 40 41 34 6 39 9
29 21 -8 10 -22 13 -41 9 -25 -6 -28 -4 -28 19 0 28 16 36 84 40 32 2 47 -2
51 -12 3 -9 13 -12 25 -9 19 5 20 0 20 -79 0 -46 4 -84 9 -84 16 0 19 13 22
80 2 89 6 100 34 100 34 0 55 10 55 26 0 17 -17 17 -100 0 -56 -12 -67 -12
-81 0 -18 16 -48 17 -99 2z"/>
<path d="M1166 4404 c-3 -9 -6 -29 -6 -45 0 -18 -5 -29 -14 -29 -7 0 -28 -3
-46 -7 -31 -6 -33 -5 -28 20 3 18 1 27 -7 27 -19 0 -25 -24 -25 -107 0 -55 3
-74 13 -71 6 3 13 25 15 51 3 42 6 47 27 47 13 0 30 3 39 6 12 5 15 -5 18 -48
2 -29 7 -53 13 -53 10 0 36 204 28 218 -7 12 -21 8 -27 -9z"/>
<path d="M1216 4388 c-3 -18 -7 -70 -9 -116 l-4 -83 76 3 c60 2 76 6 76 18 0
12 -12 15 -58 13 l-58 -2 3 37 c3 32 7 38 32 42 42 7 44 28 4 32 -27 2 -34 8
-36 30 -3 26 -2 27 53 30 78 4 74 22 -7 26 l-67 3 -5 -33z"/>
<path d="M1413 4405 c-35 -15 -57 -47 -43 -61 5 -5 10 -39 12 -77 3 -76 20
-94 28 -28 l5 43 29 -28 c16 -16 35 -39 43 -51 17 -25 43 -31 43 -9 0 7 -19
35 -42 61 -28 31 -38 50 -30 53 27 9 72 55 72 73 0 37 -59 50 -117 24z m82
-25 c6 -10 -51 -50 -71 -50 -7 0 -14 9 -17 21 -4 14 1 23 16 29 30 12 65 12
72 0z"/>
<path d="M1580 4403 c-21 -11 -35 -25 -34 -35 0 -10 1 -52 2 -93 2 -75 2 -75
36 -91 29 -14 37 -15 61 -3 16 8 37 26 48 40 18 25 18 28 3 58 -9 17 -21 31
-26 31 -5 0 2 11 15 25 28 28 30 35 13 57 -20 26 -78 31 -118 11z m80 -23 c13
-9 12 -13 -9 -30 -13 -11 -30 -20 -38 -20 -24 0 -10 -34 16 -40 13 -3 29 -13
35 -22 14 -24 -18 -58 -56 -58 l-28 0 0 75 c0 41 0 78 -1 83 0 6 32 19 56 21
6 0 17 -4 25 -9z"/>
<path d="M1886 4374 c-10 -78 -7 -138 10 -162 12 -18 24 -22 62 -21 26 0 56 4
67 8 11 5 25 4 32 -1 15 -12 138 -6 138 7 0 6 -28 12 -63 15 -40 3 -66 10 -72
20 -6 9 -7 50 -4 98 5 53 3 82 -3 82 -14 0 -22 -31 -29 -117 -6 -61 -10 -72
-28 -77 -74 -20 -91 4 -81 115 6 66 5 79 -8 79 -9 0 -16 -15 -21 -46z"/>
<path d="M1757 4373 c-15 -17 -52 -181 -43 -191 12 -12 35 10 38 35 3 24 8 28
41 31 34 3 38 1 43 -27 7 -35 29 -58 39 -42 3 6 -4 47 -16 91 -15 58 -28 86
-46 100 -31 24 -36 25 -56 3z m51 -48 c17 -37 15 -40 -19 -43 -25 -2 -30 1
-25 14 3 8 6 24 6 35 0 27 25 23 38 -6z"/>
<path d="M3075 5399 c-159 -3 -323 -7 -363 -8 l-73 -1 0 -52 c0 -29 -3 -321
-7 -648 l-7 -595 25 -39 25 -38 120 7 c66 5 173 8 237 9 l118 1 0 -55 c-1 -30
-5 -113 -10 -185 -10 -145 -5 -159 55 -153 28 3 30 6 38 58 5 30 6 118 3 195
l-5 140 377 -3 c207 -2 380 -6 384 -10 4 -4 3 -36 -3 -72 -17 -109 -27 -294
-17 -312 10 -21 61 -24 75 -5 6 6 16 99 23 206 l13 194 250 -5 250 -5 -6 660
-6 661 -28 27 -28 28 -575 3 c-316 2 -705 0 -865 -3z m1450 -49 c18 -20 17
-20 -61 -21 -43 -1 -113 0 -154 2 -41 1 -84 2 -95 2 -11 0 -349 -2 -751 -4
-639 -3 -733 -2 -749 11 -17 14 -11 16 61 21 43 3 451 6 905 7 814 2 826 2
844 -18z m-1834 -560 c-8 -582 -8 -659 3 -710 l8 -35 -23 34 -24 35 8 575 c9
692 7 655 23 639 10 -10 11 -126 5 -538z m1852 197 c4 -177 7 -461 7 -631 l0
-309 -67 7 c-97 9 -1604 10 -1689 1 l-72 -7 -8 33 c-10 38 -8 719 2 1021 l6
197 127 4 c69 1 477 3 907 4 l781 1 6 -321z m-1340 -1254 c-3 -40 -10 -63 -18
-63 -9 0 -11 40 -8 173 3 94 7 179 11 187 9 22 22 -224 15 -297z m843 220 c-4
-43 -9 -129 -13 -190 -5 -85 -9 -113 -20 -113 -16 0 -17 50 -2 225 13 148 14
155 30 155 9 0 10 -21 5 -77z"/>
<path d="M2931 5177 c-10 -30 -23 -71 -27 -93 -3 -21 -11 -47 -16 -57 -9 -18
-10 -18 -22 0 -15 21 -36 101 -36 135 0 29 -15 52 -27 45 -15 -9 5 -135 28
-184 16 -32 27 -43 44 -43 32 0 40 13 69 120 15 52 29 103 32 113 4 11 1 17
-9 17 -10 0 -23 -21 -36 -53z"/>
<path d="M3008 5203 c-26 -29 -38 -70 -38 -132 0 -47 4 -61 23 -79 13 -12 32
-22 43 -22 29 0 83 37 96 65 12 27 28 24 28 -6 0 -10 10 -29 21 -40 18 -18 30
-21 72 -16 28 2 53 10 55 16 3 8 8 8 15 2 28 -23 127 -11 127 15 0 12 -8 14
-45 8 -68 -10 -77 3 -74 100 2 53 0 81 -8 83 -14 5 -27 -87 -21 -146 l3 -39
-43 -7 c-68 -10 -75 1 -70 112 2 51 0 93 -4 93 -11 0 -28 -45 -29 -78 -1 -27
-1 -27 -10 4 -19 65 -106 107 -141 67z m60 -19 c26 -8 52 -51 52 -90 0 -28
-57 -94 -83 -94 -25 0 -39 27 -39 74 0 48 9 84 24 104 12 14 14 14 46 6z"/>
<path d="M3518 5198 l-38 -10 0 -103 c0 -97 1 -104 21 -110 34 -11 129 4 129
21 0 11 -15 14 -60 14 l-60 0 0 35 c0 33 2 35 35 35 24 0 35 5 35 15 0 10 -11
15 -35 15 -31 0 -35 3 -35 25 0 20 7 26 40 35 22 6 48 10 58 8 10 -2 17 3 17
12 0 19 -54 23 -107 8z"/>
<path d="M3758 5154 l-42 -56 -24 41 c-13 23 -28 41 -32 41 -22 0 -17 -22 16
-76 30 -51 35 -65 30 -101 -4 -33 -2 -43 9 -43 17 0 27 31 24 73 -2 25 7 46
39 92 69 96 51 123 -20 29z"/>
<path d="M3853 5190 c-22 -9 -23 -15 -23 -115 0 -104 0 -106 26 -115 44 -17
89 -12 111 13 37 39 31 84 -13 107 l-25 14 26 23 c27 26 32 52 13 71 -14 14
-83 15 -115 2z m92 -30 c3 -5 -10 -19 -29 -31 -20 -12 -36 -26 -36 -33 0 -7
18 -22 40 -35 44 -25 52 -54 20 -71 -12 -6 -33 -10 -48 -8 -27 3 -27 4 -30 82
-2 44 -1 85 2 93 6 15 72 18 81 3z"/>
<path d="M4060 5185 c-10 -13 -60 -199 -60 -226 0 -5 7 -9 15 -9 13 0 35 55
35 88 0 8 15 12 44 12 43 0 43 -1 52 -42 11 -50 34 -64 34 -20 0 43 -37 155
-61 186 -23 29 -41 33 -59 11z m48 -50 c19 -42 15 -55 -18 -55 -33 0 -35 3
-19 49 13 38 22 39 37 6z"/>
<path d="M4206 5163 c-8 -49 -8 -137 0 -158 11 -28 62 -47 105 -40 58 10 53
36 -7 33 -68 -2 -77 15 -69 120 5 67 3 82 -8 82 -9 0 -17 -15 -21 -37z"/>
<path d="M4367 5193 c-9 -8 -9 -176 -1 -197 9 -23 124 -23 124 -1 0 11 -12 15
-50 15 l-50 0 0 95 c0 87 -5 107 -23 88z"/>
<path d="M3985 4833 c-75 -17 -96 -25 -92 -36 2 -7 17 -12 33 -12 l29 0 -2
-92 c-2 -75 0 -93 12 -93 17 0 28 66 23 143 -3 55 -3 56 27 60 42 7 48 -3 25
-48 -29 -58 -23 -123 14 -147 32 -22 120 7 153 51 19 24 15 75 -7 103 -23 30
-85 62 -105 54 -7 -2 -16 2 -19 10 -5 14 -47 17 -91 7z m176 -81 c26 -24 31
-33 25 -56 -7 -29 -58 -66 -91 -66 -46 0 -58 51 -28 115 21 44 50 46 94 7z"/>
<path d="M3559 4785 l-43 -45 -41 40 c-22 22 -44 40 -48 40 -3 0 -6 -52 -5
-115 0 -88 4 -115 14 -115 17 0 28 59 21 115 l-4 44 25 -19 c37 -29 56 -25 97
23 l38 42 -7 -107 c-4 -71 -2 -109 5 -113 6 -4 12 -5 15 -3 2 3 9 52 15 111
15 157 -5 183 -82 102z"/>
<path d="M2865 4810 c-3 -5 1 -20 9 -32 12 -16 16 -47 16 -110 l0 -88 43 0
c24 0 56 8 74 20 l33 20 -3 -23 c-4 -39 25 -25 37 18 11 36 16 41 55 49 50 11
61 1 61 -52 0 -46 24 -37 28 11 4 41 -38 145 -69 173 -28 25 -45 11 -70 -56
l-22 -61 -22 21 c-12 11 -27 20 -34 20 -7 0 -11 3 -9 8 2 4 10 20 18 36 13 26
12 29 -5 42 -22 16 -131 19 -140 4z m114 -26 c3 -3 -7 -17 -23 -31 -32 -27
-46 -19 -46 26 0 21 3 23 32 17 17 -3 34 -9 37 -12z m181 -69 c0 -7 -13 -15
-30 -17 -34 -5 -34 -6 -18 40 l13 34 17 -22 c10 -12 18 -28 18 -35z m-172 -25
c17 -7 32 -18 32 -25 0 -20 -49 -55 -76 -55 -22 0 -24 4 -24 55 0 49 2 54 18
46 9 -5 32 -15 50 -21z"/>
<path d="M3677 4713 c5 -119 8 -137 23 -128 11 7 14 175 4 213 -4 12 -12 22
-19 22 -9 0 -11 -27 -8 -107z"/>
<path d="M4383 4813 c-9 -3 -13 -30 -13 -84 0 -47 -4 -79 -10 -79 -12 0 -61
74 -80 121 -7 17 -19 29 -27 27 -21 -4 -29 -208 -8 -208 10 0 16 18 21 59 l6
60 32 -46 c66 -98 93 -83 97 54 2 51 1 94 -1 96 -3 2 -11 2 -17 0z"/>
<path d="M3241 4801 c-11 -7 -12 -28 -7 -107 4 -55 11 -103 16 -108 13 -13 74
12 103 42 80 84 53 182 -50 182 -26 0 -54 -4 -62 -9z m114 -41 c15 -16 16 -24
6 -52 -13 -37 -58 -88 -78 -88 -9 0 -13 14 -13 43 0 23 -3 59 -6 80 l-7 37 40
0 c27 0 46 -6 58 -20z"/>
<path d="M3846 4723 l6 -88 -21 25 c-12 14 -33 49 -47 78 -15 29 -32 51 -38
49 -7 -2 -12 -42 -14 -105 -2 -86 0 -102 13 -102 12 0 15 13 15 62 l0 63 35
-52 c43 -64 54 -71 72 -47 10 13 13 44 11 109 -3 75 -6 90 -20 93 -15 3 -17
-6 -12 -85z"/>
<path d="M3018 4433 c0 -5 -2 -26 -2 -48 l-1 -40 -52 -5 -53 -6 0 32 c0 41 -9
64 -25 64 -16 0 -19 -203 -4 -232 15 -28 24 -14 25 43 0 27 3 51 6 54 2 3 26
8 51 11 l47 7 0 -54 c0 -54 13 -90 26 -76 4 3 9 63 11 132 4 109 3 125 -11
125 -9 0 -17 -3 -18 -7z"/>
<path d="M3177 4419 c-80 -47 -48 -219 41 -219 53 0 111 90 82 125 -14 17 -67
20 -90 5 -22 -14 -3 -25 36 -21 18 1 34 -1 34 -6 0 -21 -42 -73 -58 -73 -52 0
-79 95 -42 143 20 25 27 28 61 22 42 -7 53 7 20 25 -25 13 -61 12 -84 -1z"/>
<path d="M3945 4420 c-3 -5 -1 -18 5 -29 23 -43 10 -102 -33 -148 -50 -55 -83
-10 -72 98 4 42 3 69 -3 73 -16 10 -21 -5 -28 -82 -8 -84 6 -129 42 -138 67
-17 125 43 132 136 5 72 -21 126 -43 90z"/>
<path d="M4183 4424 c-7 -3 -22 -21 -33 -40 -26 -41 -39 -42 -70 -9 -44 46
-53 32 -54 -82 -1 -69 3 -104 11 -107 19 -8 23 5 23 82 l0 74 25 -16 c32 -21
54 -15 80 24 11 16 23 30 27 30 4 0 5 -36 1 -80 -5 -68 -4 -80 10 -80 12 0 17
19 22 94 9 112 3 128 -42 110z"/>
<path d="M4272 4421 c-18 -11 -27 -193 -12 -222 16 -30 30 -13 30 37 0 38 3
44 20 44 35 0 88 27 105 54 16 24 16 28 1 51 -23 34 -112 57 -144 36z m107
-46 c17 -17 7 -34 -32 -50 -44 -18 -57 -10 -57 37 l0 40 38 -7 c20 -3 43 -12
51 -20z"/>
<path d="M3076 4405 c-13 -34 -6 -191 9 -211 8 -10 15 -17 15 -14 1 3 2 56 3
119 1 77 -2 116 -9 118 -6 2 -14 -3 -18 -12z"/>
<path d="M3327 4353 c-10 -106 -9 -145 6 -141 6 3 13 21 15 41 3 34 6 37 45
44 l42 9 5 -50 c3 -28 11 -51 18 -54 10 -3 12 20 10 104 -3 95 -5 109 -21 112
-15 3 -17 -2 -11 -36 5 -35 4 -40 -17 -45 -50 -14 -58 -9 -61 35 -5 68 -24 57
-31 -19z"/>
<path d="M3653 4403 c-27 -10 -11 -23 27 -23 33 0 41 -4 46 -24 7 -29 -11
-100 -32 -120 -14 -14 -19 -14 -44 -1 -15 8 -30 20 -33 27 -3 7 -6 1 -6 -13
-2 -50 65 -76 103 -40 28 26 50 98 44 141 -4 27 -2 30 24 30 18 0 28 5 28 15
0 12 -14 15 -72 14 -40 0 -79 -3 -85 -6z"/>
<path d="M5497 5393 c-1 -1 -129 -3 -285 -4 -189 -2 -286 -7 -292 -14 -5 -6
-13 -296 -19 -645 l-9 -634 21 -39 22 -39 135 6 c74 3 179 9 233 12 l97 7 0
-177 0 -176 26 -12 c18 -9 30 -9 42 -1 15 9 17 34 20 187 l2 176 118 2 c250 3
726 -13 739 -26 7 -7 5 -161 -3 -242 -7 -75 5 -104 45 -104 16 0 34 6 40 14 8
9 15 75 19 173 l7 158 190 0 190 0 -3 670 -3 670 -22 23 -22 23 -643 -3 c-354
-2 -644 -4 -645 -5z m1289 -34 c8 -6 14 -15 14 -20 0 -4 -412 -8 -915 -8 -818
-1 -944 2 -912 20 8 6 630 14 1165 17 477 2 637 0 648 -9z m-1827 -675 c-2
-590 -4 -623 -19 -597 -16 26 -17 71 -9 553 4 289 8 560 8 603 1 53 4 76 12
72 7 -5 10 -197 8 -631z m1838 623 c1 -1 3 -286 5 -632 l3 -630 -205 3 c-113
2 -333 10 -490 18 -302 15 -636 12 -943 -8 -97 -6 -181 -8 -185 -4 -7 8 -8
166 -4 848 l2 408 538 2 c486 3 1274 -1 1279 -5z m-1337 -1431 c0 -148 -8
-202 -23 -161 -3 8 -6 84 -6 170 -1 131 1 155 14 155 13 0 15 -25 15 -164z
m955 -7 c-5 -152 -8 -169 -26 -169 -6 0 -9 59 -7 160 2 146 4 160 20 160 17 0
18 -10 13 -151z"/>
<path d="M5101 5211 c-25 -7 -25 -8 -22 -111 2 -66 7 -108 14 -112 7 -4 31 -8
54 -8 94 0 134 105 50 133 -6 2 -3 16 7 34 20 39 20 38 0 57 -16 16 -60 19
-103 7z m83 -29 c3 -5 -8 -22 -24 -37 -34 -32 -32 -40 16 -60 19 -8 34 -21 34
-29 0 -21 -39 -46 -72 -46 l-28 0 0 90 0 90 34 0 c19 0 37 -4 40 -8z"/>
<path d="M6308 5203 c-25 -28 -72 -193 -59 -206 8 -8 16 1 28 31 15 39 19 42
54 42 37 0 38 -1 45 -45 4 -31 11 -45 21 -45 32 0 -13 209 -49 232 -18 11 -23
10 -40 -9z m47 -94 c-6 -9 -55 -13 -55 -4 0 3 7 22 16 43 l16 37 14 -33 c8
-18 12 -37 9 -43z"/>
<path d="M5489 5194 c-50 -21 -67 -55 -45 -89 14 -21 23 -25 58 -23 34 2 43
-1 46 -15 4 -22 -24 -57 -46 -57 -9 0 -24 7 -34 17 -22 19 -32 12 -23 -16 14
-45 95 -39 124 10 l18 30 6 -31 c9 -41 27 -38 27 5 0 22 5 35 13 35 7 0 28
-16 47 -35 19 -19 38 -35 42 -35 21 0 4 37 -32 71 l-41 39 41 44 c22 24 40 48
40 55 0 23 -25 10 -67 -35 -35 -38 -43 -43 -43 -26 0 30 -10 52 -24 52 -9 0
-11 -18 -9 -62 4 -58 3 -61 -9 -38 -11 21 -21 25 -58 26 -37 0 -45 4 -45 20 0
14 12 23 47 34 48 15 58 33 22 37 -10 1 -35 -4 -55 -13z"/>
<path d="M5761 5201 c-19 -13 -19 -215 0 -219 25 -4 140 24 137 33 -2 6 -29 9
-60 8 l-58 -1 0 33 c0 31 3 34 33 37 17 2 32 8 32 13 0 6 -15 11 -32 13 -27 3
-33 8 -33 27 0 27 17 35 71 35 28 0 39 4 39 15 0 12 -13 15 -57 15 -32 0 -64
-4 -72 -9z"/>
<path d="M5933 5200 c-13 -5 -23 -17 -23 -26 0 -13 6 -15 26 -10 l27 7 -6 -78
c-6 -72 2 -117 19 -101 3 4 9 48 12 98 l5 90 47 0 48 0 7 -92 c4 -51 12 -99
17 -105 18 -23 56 -14 92 21 40 37 45 65 17 90 -19 17 -19 18 0 37 27 27 24
58 -7 69 -35 14 -108 12 -122 -2 -9 -9 -12 -9 -12 0 0 14 -113 16 -147 2z
m266 -29 c12 -8 7 -14 -22 -31 -45 -27 -47 -42 -7 -57 37 -14 38 -35 4 -62
-44 -35 -49 -28 -52 69 l-3 90 33 0 c18 0 39 -4 47 -9z"/>
<path d="M6426 5173 c-12 -79 -7 -159 12 -176 29 -26 122 -18 122 11 0 12 -9
14 -44 9 -63 -9 -70 4 -63 108 5 67 3 85 -7 85 -8 0 -16 -16 -20 -37z"/>
<path d="M6576 5179 c-8 -43 -7 -141 2 -155 17 -27 50 -34 101 -23 75 16 68
38 -11 36 l-63 -2 1 88 c1 62 -3 87 -11 87 -7 0 -15 -14 -19 -31z"/>
<path d="M5297 5182 c-23 -25 -34 -59 -42 -129 -6 -52 -4 -63 8 -63 9 0 17 14
21 40 4 24 12 40 20 40 7 0 27 3 43 6 30 6 30 5 37 -45 5 -37 11 -51 23 -51
13 0 15 9 9 61 -15 130 -70 195 -119 141z m59 -37 c20 -30 20 -30 -28 -39 -38
-7 -38 -7 -28 20 21 53 31 57 56 19z"/>
<path d="M5290 4823 c-26 -10 -30 -26 -30 -139 0 -112 3 -126 23 -118 8 3 11
25 9 64 l-4 59 41 7 c55 9 56 34 1 34 -38 0 -40 2 -40 30 0 32 2 33 84 34 44
1 59 20 24 30 -28 7 -87 7 -108 -1z"/>
<path d="M5750 4797 c-39 -13 -49 -44 -12 -39 20 3 22 0 22 -51 0 -71 10 -119
24 -114 7 2 11 36 11 93 l0 89 39 5 c22 3 41 11 44 18 5 16 -80 15 -128 -1z"/>
<path d="M6399 4783 c-6 -16 -11 -54 -12 -86 0 -75 26 -107 87 -107 56 0 86
10 86 26 0 11 -11 13 -53 8 -79 -9 -91 7 -84 108 7 81 -4 103 -24 51z"/>
<path d="M5415 4770 c-23 -24 -30 -41 -33 -88 -5 -68 11 -92 60 -92 22 0 40
10 64 35 30 33 33 34 39 15 18 -57 93 -60 151 -5 58 55 37 117 -51 151 -51 19
-69 12 -90 -40 l-13 -30 -16 31 c-12 24 -56 53 -81 53 -1 0 -14 -13 -30 -30z
m89 -54 c8 -20 6 -32 -10 -53 -27 -36 -48 -48 -69 -39 -15 5 -17 15 -13 58 6
58 27 81 61 69 12 -5 26 -20 31 -35z m160 23 c45 -35 29 -83 -36 -108 -50 -19
-76 40 -46 104 14 31 45 33 82 4z"/>
<path d="M5903 4785 c-21 -14 -23 -25 -23 -93 0 -67 9 -107 21 -102 2 1 16 -1
31 -5 32 -8 94 19 109 47 13 25 3 55 -22 63 -19 6 -19 7 -2 36 13 22 15 34 7
47 -15 23 -92 28 -121 7z m87 -30 c0 -8 -11 -22 -25 -31 -30 -19 -33 -44 -6
-44 30 0 51 -11 51 -26 0 -19 -53 -44 -78 -37 -20 5 -22 12 -22 73 0 72 4 78
53 79 17 1 27 -4 27 -14z"/>
<path d="M6092 4780 c-14 -23 -42 -147 -42 -186 0 -40 24 -23 33 23 8 40 9 41
55 45 26 3 49 3 51 2 2 -2 6 -18 10 -35 4 -18 13 -35 20 -37 25 -8 6 104 -26
157 -34 54 -78 68 -101 31z m67 -39 c12 -16 21 -32 21 -35 0 -7 -70 -20 -76
-13 -8 8 16 77 26 77 5 0 18 -13 29 -29z"/>
<path d="M6251 4756 c-18 -72 -14 -133 9 -156 17 -17 31 -20 76 -18 67 4 72
22 7 26 -66 5 -77 16 -70 77 3 27 9 65 13 83 5 25 3 32 -9 32 -9 0 -19 -16
-26 -44z"/>
<path d="M5363 4410 c-29 -12 -35 -38 -31 -129 2 -48 7 -76 16 -79 8 -2 12 10
12 40 l1 43 40 -43 c49 -52 79 -53 92 -6 7 25 16 33 40 38 35 7 47 -5 47 -46
0 -19 5 -28 16 -28 14 0 16 8 11 52 -9 74 -45 142 -78 146 -30 4 -44 -20 -54
-94 -11 -74 -17 -79 -50 -43 -27 28 -28 31 -12 40 24 14 57 51 57 64 0 33 -68
61 -107 45z m68 -36 c11 -14 10 -19 -10 -35 -35 -29 -61 -25 -61 9 0 16 3 32
7 35 12 13 50 7 64 -9z m118 -31 c10 -21 9 -28 -1 -34 -32 -21 -49 2 -32 45 9
23 19 20 33 -11z"/>
<path d="M5066 4394 c-17 -17 -21 -93 -10 -178 9 -64 29 -54 29 15 l0 53 37 7
c21 3 46 13 57 23 18 16 18 15 5 -36 -18 -66 -17 -78 1 -78 8 0 17 14 21 35 6
32 9 35 40 35 29 0 35 -4 41 -30 4 -17 13 -29 18 -28 18 5 9 74 -16 124 -28
56 -59 69 -77 32 -7 -16 -11 -18 -11 -7 -2 44 -100 68 -135 33z m99 -40 c0
-21 -48 -49 -71 -40 -8 3 -14 18 -14 35 0 23 5 30 23 33 34 6 62 -7 62 -28z
m105 -46 c0 -5 -11 -8 -25 -8 -29 0 -29 0 -13 35 l12 26 13 -23 c7 -13 12 -26
13 -30z"/>
<path d="M5736 4388 c-3 -13 -6 -51 -6 -85 0 -60 -1 -62 -30 -68 -16 -4 -34
-4 -40 0 -5 3 -10 42 -10 86 0 43 -4 79 -9 79 -15 0 -21 -29 -21 -101 0 -63 2
-70 26 -86 21 -13 33 -15 64 -6 22 5 45 6 54 1 8 -5 28 -5 43 -1 15 3 59 7 97
7 46 1 71 5 73 14 3 8 -10 12 -46 12 l-51 0 0 34 c0 30 4 35 27 38 42 5 41 28
-2 28 -29 0 -36 3 -33 18 2 12 16 18 47 22 58 7 68 30 12 30 -22 0 -51 -4 -65
-10 -26 -9 -26 -11 -20 -78 l7 -69 -33 -12 c-50 -17 -60 -3 -60 90 0 76 -11
103 -24 57z"/>
<path d="M5992 4340 c-19 -128 10 -163 107 -129 51 18 38 32 -23 25 -51 -7
-54 -6 -58 18 -3 13 -1 50 3 82 4 32 6 61 3 66 -13 21 -22 2 -32 -62z"/>
<path d="M6235 4403 c-11 -3 -23 -10 -27 -17 -9 -13 -10 -142 -2 -173 8 -31
40 -30 87 2 43 30 57 69 34 92 -14 14 -14 18 1 41 15 23 15 25 -7 43 -23 19
-46 22 -86 12z m65 -38 c0 -8 -13 -21 -30 -30 -36 -18 -39 -35 -7 -35 12 0 29
-5 37 -10 13 -9 10 -15 -18 -40 -18 -17 -37 -30 -42 -30 -11 0 -14 143 -3 153
13 14 63 7 63 -8z"/>
<path d="M6498 4393 c-12 -13 -15 -33 -12 -73 l5 -55 -14 37 c-39 102 -79 115
-109 36 -25 -67 -35 -152 -18 -146 8 2 18 22 25 44 9 34 15 39 43 42 29 3 33
0 38 -26 4 -21 13 -31 30 -35 30 -5 34 -1 34 42 l0 35 30 -29 c16 -16 32 -37
35 -46 11 -33 118 -9 154 35 18 22 8 43 -34 67 -19 12 -35 25 -35 29 0 5 16
14 35 21 19 7 34 18 32 24 -6 15 -48 8 -76 -13 -24 -17 -25 -17 -47 5 -29 29
-93 32 -116 6z m97 -22 c7 -12 -34 -41 -57 -41 -13 0 -18 8 -18 25 0 22 4 25
34 25 19 0 37 -4 41 -9z m-155 -53 c0 -5 -11 -8 -25 -8 -28 0 -29 3 -14 31 10
20 11 20 24 2 8 -10 15 -21 15 -25z m240 -18 c35 -15 39 -35 9 -51 -23 -12
-79 -19 -79 -9 0 3 -12 18 -27 34 -17 19 -23 31 -15 34 6 2 22 12 34 22 22 17
23 17 35 0 7 -9 26 -23 43 -30z"/>
<path d="M1160 3494 c-182 -17 -243 -30 -317 -66 -172 -84 -256 -228 -256
-438 0 -115 8 -146 80 -303 58 -127 117 -274 208 -513 112 -296 203 -428 396
-572 80 -60 291 -156 431 -197 146 -43 260 -54 588 -57 l235 -3 76 33 c100 43
218 121 268 178 113 129 117 364 9 594 -22 47 -57 123 -78 170 -21 47 -79 167
-129 268 -234 465 -377 627 -699 787 -246 122 -460 154 -812 119z m430 -38
c188 -26 402 -114 566 -234 106 -78 256 -241 321 -349 49 -82 193 -365 286
-563 21 -47 58 -125 82 -175 90 -192 98 -378 20 -510 -53 -91 -228 -203 -366
-234 -65 -15 -563 4 -666 24 -287 59 -538 190 -698 367 -96 105 -137 188 -285
577 -28 74 -85 210 -125 302 -93 210 -99 233 -93 367 8 164 55 255 170 330 93
60 124 70 270 87 250 28 371 30 518 11z"/>
<path d="M3410 3488 c-197 -20 -364 -84 -449 -172 -65 -66 -101 -176 -101
-305 0 -53 5 -114 11 -136 14 -51 72 -171 122 -255 22 -35 84 -152 138 -260
298 -589 337 -642 557 -764 264 -146 600 -252 832 -263 97 -4 135 -1 245 20
72 15 162 39 200 55 103 42 208 114 248 169 39 53 50 89 67 209 11 73 10 90
-9 163 -22 89 -58 171 -133 300 -26 46 -48 85 -48 87 0 1 -17 33 -38 71 -21
37 -75 138 -119 223 -264 507 -361 610 -728 768 -93 40 -156 58 -295 82 -125
21 -340 25 -500 8z m505 -48 c143 -24 184 -37 337 -105 193 -87 339 -203 432
-345 57 -87 155 -260 253 -450 44 -85 112 -211 150 -280 157 -280 174 -347
138 -535 -20 -105 -53 -150 -165 -221 -88 -56 -152 -79 -305 -110 -108 -22
-147 -25 -231 -21 -277 15 -729 177 -939 338 -110 83 -152 152 -415 665 -54
105 -109 209 -124 232 -51 81 -126 241 -137 292 -14 66 -6 219 15 285 34 106
171 203 336 239 187 41 463 48 655 16z"/>
<path d="M3719 2666 c-66 -24 -170 -87 -181 -111 -22 -49 30 -112 157 -192
117 -74 305 -137 444 -149 85 -7 229 16 312 51 69 30 145 79 153 101 6 15 -21
69 -59 120 -42 56 -180 118 -365 165 -103 26 -131 29 -270 29 -100 -1 -168 -5
-191 -14z m511 -70 c155 -46 254 -97 297 -155 18 -23 33 -48 33 -54 -1 -34
-163 -111 -270 -128 -201 -31 -483 50 -655 189 -82 65 -81 84 5 134 36 21 79
43 95 48 17 5 107 8 200 6 163 -3 175 -4 295 -40z"/>
<path d="M5625 3480 c-167 -32 -219 -47 -298 -86 -98 -47 -141 -84 -175 -148
-26 -49 -27 -57 -27 -201 0 -117 4 -164 19 -215 28 -97 113 -271 190 -389 37
-58 98 -161 136 -230 37 -69 112 -198 166 -286 159 -256 280 -356 581 -479
330 -134 578 -168 853 -118 295 54 402 111 466 247 22 45 38 100 46 152 11 78
11 86 -20 209 -36 141 -61 193 -176 361 -39 58 -78 117 -86 131 -22 42 -207
356 -275 467 -123 204 -345 391 -570 481 -271 107 -300 114 -540 119 -160 4
-206 2 -290 -15z m480 -35 c94 -14 292 -72 320 -95 6 -5 31 -17 55 -25 160
-57 417 -287 525 -472 32 -54 96 -160 142 -236 47 -76 96 -161 109 -190 14
-29 51 -88 84 -132 152 -205 224 -411 199 -566 -23 -146 -95 -246 -203 -287
-97 -36 -122 -43 -256 -69 -290 -56 -528 -21 -886 129 -208 87 -367 206 -458
343 -67 101 -164 263 -221 370 -32 61 -89 159 -127 219 -135 212 -193 342
-219 490 -15 90 -8 261 14 302 47 91 201 171 394 205 220 39 325 42 528 14z"/>
<path d="M5785 3074 c-33 -8 -73 -20 -90 -26 -47 -19 -135 -79 -135 -93 0 -25
89 -123 157 -172 155 -115 318 -163 546 -163 202 0 322 43 389 139 16 23 16
26 0 53 -9 17 -46 55 -82 86 -90 77 -231 140 -397 176 -91 20 -304 20 -388 0z
m435 -47 c168 -46 258 -91 349 -174 61 -55 63 -60 50 -81 -20 -32 -94 -77
-159 -97 -30 -9 -107 -19 -170 -22 -131 -6 -256 15 -382 63 -92 35 -208 114
-265 181 l-44 51 43 30 c123 83 372 105 578 49z"/>
<path d="M6264 2195 c-34 -7 -84 -25 -112 -39 -51 -26 -122 -81 -122 -95 0
-18 79 -97 148 -148 134 -99 193 -133 291 -164 182 -60 425 -50 582 22 61 28
129 85 129 107 0 14 -76 89 -131 129 -203 150 -563 236 -785 188z m319 -40
c184 -32 362 -107 485 -205 87 -71 82 -93 -30 -145 -80 -36 -186 -56 -304 -56
-208 -1 -319 38 -507 175 -115 84 -152 119 -144 138 8 21 108 76 167 92 72 19
226 20 333 1z"/>
<path d="M8008 3400 c-175 -28 -389 -87 -462 -128 -125 -69 -176 -245 -131
-452 22 -105 41 -141 251 -493 103 -171 207 -347 233 -391 141 -242 352 -371
746 -455 55 -12 127 -28 161 -36 196 -46 367 -56 534 -30 185 28 300 75 390
161 86 82 105 127 105 249 0 91 -4 111 -42 221 -59 172 -153 355 -260 504 -30
41 -87 122 -128 180 -128 180 -235 291 -355 369 -224 146 -366 209 -600 266
-167 41 -324 53 -442 35z m422 -69 c192 -47 223 -58 358 -126 213 -107 322
-185 437 -311 55 -61 127 -151 159 -200 33 -49 83 -120 112 -159 60 -81 154
-245 206 -360 95 -210 120 -394 66 -486 -93 -158 -302 -242 -608 -243 -155 -1
-173 2 -475 69 -200 45 -385 109 -483 167 -67 40 -169 133 -217 197 -19 26
-74 117 -123 202 -49 85 -153 259 -230 387 -142 234 -160 276 -183 406 -29
170 16 313 117 368 52 28 270 88 409 113 128 23 304 13 455 -24z"/>
<path d="M7977 3113 c-37 -37 56 -84 204 -102 83 -11 109 -7 109 15 0 21 -85
65 -153 80 -67 14 -150 18 -160 7z m207 -49 c46 -16 61 -34 28 -34 -63 0 -202
36 -202 52 0 14 113 3 174 -18z"/>
<path d="M8623 2946 c-32 -24 -19 -42 45 -66 72 -27 238 -46 258 -29 24 20 16
29 -61 65 -91 42 -206 56 -242 30z m211 -45 c25 -11 46 -23 46 -27 0 -4 -33
-4 -72 -1 -79 6 -168 33 -168 49 0 18 143 2 194 -21z"/>
<path d="M7723 2818 c-59 -29 3 -76 138 -104 137 -29 225 6 127 50 -110 49
-228 72 -265 54z m174 -50 c92 -28 93 -43 2 -35 -74 6 -169 32 -169 46 0 26
59 22 167 -11z"/>
<path d="M8993 2543 c-7 -2 -13 -13 -13 -24 0 -36 145 -89 246 -89 61 0 84 7
84 26 0 42 -255 113 -317 87z m150 -39 c71 -18 114 -38 100 -47 -14 -9 -141
10 -190 29 -90 33 -21 47 90 18z"/>
<path d="M8498 2459 c-59 -34 34 -81 194 -99 88 -10 118 -5 118 20 0 20 -86
62 -160 79 -57 13 -130 13 -152 0z m191 -40 c30 -10 59 -23 65 -29 22 -22
-136 -5 -206 22 -28 10 -34 19 -22 31 10 10 105 -4 163 -24z"/>
<path d="M7972 2382 c-13 -4 -23 -10 -23 -14 1 -5 1 -12 1 -17 0 -4 28 -21 63
-37 94 -43 282 -46 282 -4 0 50 -225 99 -323 72z m205 -36 c68 -18 82 -27 57
-37 -35 -14 -101 -9 -168 11 -36 11 -68 25 -71 30 -9 15 122 12 182 -4z"/>
<path d="M9243 2100 c-47 -20 4 -61 116 -94 74 -22 219 -22 228 -1 7 21 8 21
-89 60 -91 37 -212 54 -255 35z m220 -50 c96 -36 67 -50 -61 -30 -73 12 -142
38 -142 53 0 16 139 1 203 -23z"/>
<path d="M8234 1969 c-7 -11 14 -39 28 -39 6 0 22 -8 36 -19 15 -10 52 -24 82
-31 59 -13 223 -11 237 3 12 13 -39 49 -99 72 -39 14 -82 20 -166 21 -61 1
-115 -2 -118 -7z m271 -43 c30 -13 36 -19 26 -26 -30 -18 -200 10 -223 37 -12
15 -4 16 72 11 47 -3 103 -13 125 -22z"/>
<path d="M8927 1814 c-11 -4 -16 -12 -13 -21 3 -8 6 -16 6 -19 0 -10 86 -46
142 -59 69 -16 185 -20 207 -6 25 16 6 33 -79 68 -68 28 -101 36 -165 39 -44
1 -88 1 -98 -2z m212 -47 c36 -12 67 -28 69 -36 10 -30 -222 12 -249 45 -19
23 105 17 180 -9z"/>
<path d="M2956 805 c-3 -9 -6 -60 -6 -113 l-1 -97 -22 29 c-12 16 -38 58 -57
95 -54 100 -65 91 -65 -54 0 -108 2 -120 18 -123 18 -4 18 2 12 85 l-7 88 37
-60 c59 -96 95 -126 108 -91 11 28 11 250 0 253 -6 2 -13 -3 -17 -12z"/>
<path d="M3063 809 c-60 -22 -94 -197 -47 -244 23 -22 75 -18 108 9 27 21 30
31 34 90 4 60 2 70 -23 106 -31 45 -42 50 -72 39z m47 -61 c29 -48 27 -112 -5
-144 -33 -33 -66 -29 -76 10 -14 51 22 166 51 166 6 0 19 -15 30 -32z"/>
<path d="M6718 806 c-32 -7 -60 -15 -63 -18 -4 -3 -8 -56 -10 -118 l-4 -113
77 7 c42 4 81 11 86 16 15 15 -21 23 -75 17 l-49 -6 0 39 c0 38 2 40 30 40 20
0 30 5 30 15 0 10 -10 15 -30 15 -27 0 -30 3 -30 34 0 30 4 34 31 40 17 3 44
6 60 6 32 0 48 18 28 31 -8 5 -16 8 -19 8 -3 0 -31 -6 -62 -13z"/>
<path d="M5431 790 c-61 -22 -76 -33 -67 -49 5 -7 15 -7 31 -1 l25 10 0 -95
c0 -77 3 -95 15 -95 11 0 15 20 17 102 l3 102 33 10 c34 9 45 36 15 36 -10 -1
-42 -10 -72 -20z"/>
<path d="M6962 800 c-39 -9 -46 -15 -38 -29 4 -5 22 -7 42 -4 l36 6 -6 -39
c-9 -59 -12 -171 -4 -179 15 -16 28 9 28 54 0 26 3 75 6 109 7 59 8 61 38 64
17 2 31 8 31 13 0 13 -89 16 -133 5z"/>
<path d="M3597 766 c-3 -20 -3 -61 0 -92 8 -76 -8 -66 -54 32 -50 110 -64 101
-60 -38 2 -92 5 -113 17 -113 11 0 16 14 18 53 l3 52 33 -42 c18 -25 40 -43
52 -43 18 0 19 8 19 109 0 71 -4 111 -11 113 -6 2 -14 -12 -17 -31z"/>
<path d="M4020 787 l-45 -12 -3 -94 c-1 -52 -8 -101 -14 -108 -7 -9 -8 -17 -2
-23 12 -12 169 2 169 15 0 6 -28 11 -63 13 l-63 3 3 42 c3 41 4 42 41 45 53 5
51 32 -3 32 -75 0 -41 55 40 66 33 4 50 11 50 20 0 17 -46 17 -110 1z"/>
<path d="M4504 786 c-34 -15 -50 -44 -34 -60 5 -5 10 -40 10 -77 0 -37 3 -74
6 -83 11 -29 24 -17 24 22 0 60 10 66 61 34 24 -16 53 -41 63 -56 13 -20 21
-25 29 -17 17 17 -12 61 -60 91 l-42 27 37 24 c43 28 56 74 26 96 -23 17 -80
16 -120 -1z m102 -27 c9 -15 -24 -46 -57 -54 -23 -6 -27 -3 -31 19 -4 18 0 30
11 36 22 13 68 12 77 -1z"/>
<path d="M5886 786 c-73 -14 -87 -36 -24 -36 l43 0 -3 -101 c-3 -82 -1 -100
10 -97 9 3 15 33 20 97 7 112 11 121 43 121 16 0 25 6 25 15 0 18 -27 18 -114
1z"/>
<path d="M7197 793 c-4 -3 -7 -23 -7 -44 0 -30 -4 -38 -22 -43 -46 -12 -68 -7
-68 15 0 12 -5 19 -12 17 -17 -6 -33 -167 -18 -182 16 -16 23 0 28 59 4 52 6
55 32 55 16 0 35 3 44 6 12 5 16 -5 18 -52 2 -32 8 -59 15 -61 8 -3 12 26 15
94 5 128 -1 160 -25 136z"/>
<path d="M3361 774 c-29 -21 -60 -89 -61 -132 0 -41 24 -89 49 -97 25 -8 61 8
90 39 18 19 26 41 29 79 4 49 2 57 -28 90 -36 42 -46 44 -79 21z m66 -60 c29
-39 2 -119 -44 -130 -38 -10 -56 18 -49 74 8 62 20 80 53 76 15 -1 33 -11 40
-20z"/>
<path d="M3720 781 l-65 -6 -3 -109 c-1 -60 1 -113 6 -118 6 -6 44 -7 91 -3
63 6 81 11 81 23 0 12 -12 14 -75 9 l-75 -5 0 39 c0 33 3 39 23 41 32 2 61 5
71 7 5 0 3 8 -5 17 -8 10 -25 14 -48 12 -34 -3 -36 -1 -39 29 l-3 32 68 3 c52
2 68 6 68 18 0 17 -10 19 -95 11z"/>
<path d="M4363 782 l-71 -3 -1 -116 -2 -115 78 7 c85 8 97 11 87 27 -4 5 -33
8 -68 6 -44 -2 -61 0 -60 10 1 6 2 25 3 41 1 27 5 30 39 33 20 2 37 8 37 13 0
6 -17 11 -37 13 -33 3 -38 7 -38 28 0 23 3 24 59 24 42 0 60 4 64 14 8 19 -5
22 -90 18z"/>
<path d="M5066 771 c-23 -25 -52 -104 -61 -164 -6 -39 -5 -47 8 -47 10 0 18
14 22 40 8 46 9 47 63 56 l40 6 14 -47 c16 -56 34 -59 31 -5 -2 48 -62 174
-84 178 -8 1 -23 -6 -33 -17z m44 -40 c16 -32 12 -41 -20 -41 -34 0 -34 0 -18
35 13 30 24 32 38 6z"/>
<path d="M5308 705 l-3 -85 -40 72 c-57 102 -65 100 -65 -19 0 -100 8 -131 30
-118 9 5 11 25 7 64 -5 46 -4 53 6 37 43 -65 70 -97 80 -93 8 2 13 40 15 115
2 94 0 112 -12 112 -12 0 -16 -18 -18 -85z"/>
<path d="M5545 765 c-18 -17 -25 -34 -23 -53 3 -28 18 -36 91 -47 42 -7 48
-25 22 -75 -20 -38 -38 -38 -71 0 -25 27 -44 32 -44 10 0 -5 12 -22 26 -39 50
-60 122 -26 131 61 5 57 -5 70 -66 76 -28 2 -53 8 -56 12 -2 4 3 17 11 29 11
15 24 21 42 19 19 -2 27 2 27 12 0 10 -12 16 -32 18 -24 2 -39 -3 -58 -23z"/>
<path d="M6007 772 c-20 -22 -47 -96 -47 -129 0 -27 17 -64 34 -75 28 -19 69
-7 107 31 34 33 39 45 39 83 0 46 -17 71 -67 97 -30 16 -47 14 -66 -7z m83
-42 c24 -24 25 -51 5 -90 -28 -54 -79 -66 -96 -24 -7 20 -5 41 6 80 13 47 19
54 40 54 14 0 34 -9 45 -20z"/>
<path d="M6513 778 c-27 -13 -55 -70 -47 -93 5 -13 18 -16 63 -13 53 3 56 2
59 -22 2 -17 -6 -34 -23 -50 l-25 -24 -31 23 c-42 31 -62 13 -26 -23 35 -35
71 -33 108 3 22 23 29 39 29 70 0 49 -24 66 -81 57 -30 -5 -39 -3 -39 8 0 20
39 46 67 46 14 0 23 6 23 15 0 18 -43 19 -77 3z"/>
<path d="M7290 778 l-35 -10 -2 -97 c-1 -54 2 -103 7 -111 11 -18 151 -2 158
18 3 11 -10 13 -64 10 -51 -2 -69 0 -68 10 1 6 2 28 3 47 1 33 4 35 41 41 50
8 47 28 -4 32 -67 6 -26 39 52 41 21 1 32 6 32 16 0 18 -62 19 -120 3z"/>
<path d="M4245 770 c-4 -6 -19 -45 -34 -86 l-28 -75 -18 68 c-19 73 -28 89
-43 79 -10 -6 -7 -22 29 -158 13 -49 43 -52 62 -5 41 99 60 168 50 178 -8 8
-13 7 -18 -1z"/>
<path d="M4980 752 c0 -36 -39 -152 -51 -152 -5 0 -14 11 -19 25 -14 37 -36
30 -55 -17 l-18 -43 -13 30 c-7 17 -15 53 -19 80 -9 71 -14 85 -32 85 -16 0
-15 -19 8 -138 13 -65 40 -97 69 -82 10 5 21 19 25 30 6 19 7 19 32 3 25 -17
26 -16 49 10 43 51 72 197 39 197 -10 0 -15 -10 -15 -28z"/>
<path d="M6284 765 c-4 -8 -5 -51 -3 -94 5 -90 22 -121 71 -121 54 0 98 73 98
162 0 45 -8 68 -24 68 -9 0 -12 -20 -12 -62 1 -104 -58 -174 -91 -108 -7 14
-13 58 -13 98 0 67 -12 94 -26 57z"/>
<path d="M2202 388 c-66 -10 -82 -33 -24 -33 l32 0 0 -85 c0 -88 9 -118 30
-105 9 6 11 33 8 100 l-5 92 34 9 c19 5 34 14 34 19 -1 14 -34 15 -109 3z"/>
<path d="M2814 353 c-12 -77 -10 -149 6 -168 20 -24 133 -17 138 8 3 15 -4 17
-55 15 l-58 -3 1 98 c1 74 -2 97 -12 97 -8 0 -16 -19 -20 -47z"/>
<path d="M3022 393 c-45 -18 -70 -164 -34 -196 30 -28 89 -22 123 12 34 35 40
95 12 142 -21 35 -69 55 -101 42z m73 -56 c36 -51 -1 -131 -59 -125 -27 3 -31
7 -34 38 -2 19 1 51 7 71 9 31 15 36 41 37 20 0 35 -7 45 -21z"/>
<path d="M3497 355 c-21 -25 -41 -45 -45 -45 -4 1 -20 19 -35 42 -20 28 -32
37 -39 30 -8 -8 -1 -26 22 -62 29 -45 33 -59 31 -111 -1 -46 2 -59 13 -59 11
0 17 17 22 61 6 52 13 68 51 115 39 48 48 74 25 74 -4 0 -25 -20 -45 -45z"/>
<path d="M3705 387 c-10 -8 -14 -17 -8 -20 6 -4 8 -45 5 -105 -3 -64 -1 -102
6 -106 18 -11 91 25 120 59 l27 33 1 -49 c1 -27 3 -52 6 -55 9 -9 147 20 145
31 -1 6 -27 9 -59 8 l-58 -3 0 35 c0 30 4 35 32 43 46 12 48 32 3 32 -36 0
-37 1 -30 27 9 37 9 37 68 39 61 2 74 27 18 32 -62 6 -100 -6 -107 -34 l-7
-26 -21 26 c-35 43 -104 59 -141 33z m99 -38 c31 -24 33 -52 6 -96 -20 -33
-67 -70 -76 -60 -3 3 -3 44 1 91 8 96 18 105 69 65z"/>
<path d="M4418 389 c-30 -11 -44 -37 -28 -53 5 -5 10 -50 10 -99 0 -66 3 -88
13 -85 6 3 13 23 15 46 2 23 6 42 9 42 15 0 74 -44 91 -67 11 -15 24 -23 30
-19 18 11 -13 63 -51 86 l-31 19 30 11 c42 15 61 51 46 85 -19 41 -76 55 -134
34z m96 -35 c9 -8 16 -19 16 -23 0 -16 -28 -32 -64 -38 l-36 -6 0 42 c0 40 1
41 34 41 19 0 42 -7 50 -16z"/>
<path d="M5305 388 c-3 -7 -6 -53 -7 -102 l-3 -90 -52 82 c-29 45 -57 82 -63
82 -6 0 -10 -33 -10 -85 l0 -85 -49 0 c-27 0 -63 -3 -80 -6 l-31 -6 0 51 0 51
41 0 c52 0 48 24 -4 28 -23 2 -37 8 -37 16 0 16 31 26 83 26 26 0 37 4 35 13
-5 15 -75 21 -118 10 l-31 -8 -3 -97 c-1 -54 1 -103 4 -109 5 -8 33 -9 96 -3
49 4 96 8 104 8 11 1 16 16 18 60 l3 60 39 -62 c40 -63 71 -80 84 -46 10 26 7
212 -4 219 -6 3 -12 0 -15 -7z"/>
<path d="M5545 370 c-15 -29 -13 -50 4 -50 9 0 31 45 31 65 0 25 -19 17 -35
-15z"/>
<path d="M5961 378 c-38 -40 -76 -208 -51 -223 16 -10 21 -3 28 52 l7 48 56 3
56 3 7 -51 c5 -34 11 -50 19 -47 19 6 11 101 -13 155 -37 84 -70 102 -109 60z
m68 -45 c15 -32 3 -43 -46 -43 -32 0 -32 1 -21 28 25 58 45 63 67 15z"/>
<path d="M6965 378 c-34 -26 -64 -91 -65 -136 0 -43 46 -92 87 -92 44 0 73 11
73 27 0 12 -8 13 -40 8 -34 -6 -43 -3 -65 19 -30 30 -31 47 -6 102 22 49 47
67 74 52 27 -14 33 -2 12 22 -23 25 -36 25 -70 -2z"/>
<path d="M7750 393 c-8 -3 -18 -11 -22 -17 -11 -17 -9 -224 2 -231 32 -20 152
75 166 132 16 63 -83 142 -146 116z m76 -42 c39 -24 46 -50 26 -91 -14 -28
-75 -80 -94 -80 -10 0 -11 174 -1 183 11 12 37 7 69 -12z"/>
<path d="M2655 359 c-25 -22 -35 -27 -35 -15 0 23 -32 36 -88 36 -54 0 -85
-21 -64 -42 7 -7 12 -47 12 -100 0 -72 3 -88 15 -88 11 0 15 12 15 49 0 48 1
50 33 56 17 4 41 13 52 20 19 12 20 11 17 -19 -2 -19 5 -44 17 -63 17 -27 27
-33 56 -33 104 0 139 117 58 195 -20 19 -40 35 -44 35 -5 0 -24 -14 -44 -31z
m-70 -20 c16 -16 -9 -44 -44 -47 -28 -3 -31 -1 -31 27 0 16 6 32 13 34 15 6
48 -2 62 -14z m126 1 c28 -15 51 -65 43 -95 -7 -30 -40 -55 -70 -55 -43 0 -52
99 -13 146 14 17 15 17 40 4z"/>
<path d="M3215 376 c-81 -35 -68 -175 20 -212 26 -11 40 -11 58 -3 29 13 70
81 61 102 -7 19 -55 31 -84 22 -26 -8 -16 -25 15 -25 33 0 40 -16 21 -45 -35
-54 -111 -9 -111 65 0 57 23 75 90 74 30 -1 55 1 55 5 0 31 -71 40 -125 17z"/>
<path d="M4042 373 c-18 -17 -19 -26 -13 -117 4 -66 10 -101 19 -104 8 -2 12
11 12 47 l0 51 41 0 c51 0 75 13 83 45 9 35 -9 64 -49 81 -45 19 -69 18 -93
-3z m83 -25 c20 -9 25 -18 23 -37 -3 -23 -8 -26 -45 -29 l-43 -3 0 40 c0 45
15 52 65 29z"/>
<path d="M4578 383 c-30 -8 -21 -33 12 -33 l29 0 3 -85 c4 -116 22 -114 26 2
l3 92 35 3 c19 2 35 8 37 13 2 10 -114 17 -145 8z"/>
<path d="M4877 359 l-25 -32 -34 27 c-40 30 -63 33 -72 10 -3 -9 -6 -58 -6
-111 0 -85 2 -94 18 -91 15 3 17 14 14 80 -4 93 1 105 35 78 36 -28 71 -26 85
5 18 40 28 18 28 -63 0 -81 9 -110 30 -97 18 11 7 167 -14 200 -21 32 -29 32
-59 -6z"/>
<path d="M5397 380 c-20 -4 -40 -10 -43 -13 -11 -11 8 -29 27 -24 18 5 19 -2
19 -83 0 -79 9 -114 27 -97 3 3 6 45 6 94 1 48 7 91 12 95 6 4 25 8 43 8 22 0
32 5 32 15 0 16 -53 19 -123 5z"/>
<path d="M5619 361 c-51 -51 -34 -91 38 -91 47 0 66 -20 53 -55 -18 -48 -77
-56 -103 -14 -14 23 -37 25 -37 4 0 -21 34 -53 65 -61 40 -10 74 4 95 39 39
64 13 117 -59 117 -51 0 -58 13 -24 40 19 15 36 20 54 16 32 -6 43 2 28 21
-21 24 -78 16 -110 -16z"/>
<path d="M6136 381 c-59 -6 -93 -31 -42 -31 25 0 25 0 28 -102 3 -112 21 -143
25 -43 5 117 12 145 36 145 12 0 28 4 36 9 15 10 6 32 -12 29 -7 -1 -39 -4
-71 -7z"/>
<path d="M6325 378 c-2 -7 -6 -29 -7 -48 -3 -33 -6 -35 -40 -38 -35 -3 -38 -1
-38 22 0 15 -6 26 -14 26 -14 0 -26 -60 -26 -136 0 -72 23 -53 32 26 3 22 9
25 45 28 l42 3 3 -53 c2 -36 7 -53 16 -53 17 0 20 227 3 233 -6 2 -13 -2 -16
-10z"/>
<path d="M7425 380 l-30 -9 1 -108 1 -108 79 4 c86 4 89 4 79 20 -3 6 -33 11
-66 11 l-59 0 0 40 c0 38 2 40 29 40 29 0 49 15 37 28 -4 3 -19 6 -34 7 -20 0
-28 6 -30 22 -3 18 3 23 30 28 18 3 44 5 58 3 17 -2 25 2 25 12 0 18 -73 24
-120 10z"/>
<path d="M7950 370 c-30 -30 -42 -67 -30 -91 8 -14 21 -19 55 -19 48 0 60 -10
51 -44 -11 -43 -87 -54 -111 -17 -9 15 -25 14 -25 -2 0 -22 35 -47 73 -54 31
-5 40 -1 67 25 21 22 30 40 30 64 0 45 -15 58 -67 58 -49 0 -56 17 -23 50 19
19 22 19 56 5 45 -18 44 -18 44 0 0 17 -50 45 -80 45 -11 0 -29 -9 -40 -20z"/>
<path d="M2342 373 c-22 -8 -62 -100 -62 -141 0 -47 14 -62 57 -62 70 0 134
97 103 154 -9 18 -72 59 -83 55 -1 0 -8 -3 -15 -6z m68 -62 c15 -29 13 -37
-21 -76 -57 -65 -100 -26 -65 59 12 30 20 36 45 36 20 0 34 -7 41 -19z"/>
<path d="M4240 348 c-39 -64 -67 -208 -41 -208 11 0 16 16 26 73 6 37 6 37 55
37 52 0 51 1 65 -67 7 -33 35 -47 35 -17 0 29 -31 137 -51 176 -26 50 -61 52
-89 6z m68 -38 l11 -30 -40 0 c-38 0 -39 1 -28 23 28 54 40 56 57 7z"/>
<path d="M6395 371 c-3 -6 -8 -53 -12 -105 -5 -84 -4 -99 12 -116 21 -23 26
-24 78 -9 53 15 43 35 -16 31 l-47 -4 0 49 c1 26 5 68 9 92 9 45 6 71 -9 71
-5 0 -11 -4 -15 -9z"/>
<path d="M6565 373 c-32 -8 -35 -22 -33 -126 l1 -98 85 3 c57 2 87 7 90 16 3
9 -15 12 -66 12 l-70 0 -6 35 c-9 46 -2 55 40 55 48 0 40 24 -9 28 -20 2 -37
6 -37 10 1 24 25 37 77 42 32 3 57 10 56 15 -3 11 -95 16 -128 8z"/>
<path d="M6717 373 c-14 -13 -6 -33 13 -33 19 0 20 -7 20 -90 0 -50 4 -90 9
-90 15 0 21 29 21 111 l0 79 50 0 c38 0 50 4 50 15 0 12 -15 15 -78 15 -43 0
-82 -3 -85 -7z"/>
<path d="M7197 368 l-28 -10 3 -111 c2 -92 6 -112 18 -112 12 0 15 13 15 55
l0 55 39 5 c58 7 59 30 2 30 -44 0 -46 1 -46 29 0 24 5 29 31 35 17 3 44 6 60
6 19 0 29 5 29 15 0 18 -77 20 -123 3z"/>
<path d="M7337 328 c-14 -111 -5 -205 16 -171 11 18 12 216 1 220 -7 2 -14
-17 -17 -49z"/>
<path d="M7580 343 c-22 -75 -24 -140 -6 -168 15 -22 23 -25 77 -25 74 0 79
23 7 28 -65 4 -74 19 -60 95 7 34 15 72 18 85 5 16 2 22 -9 22 -10 0 -20 -15
-27 -37z"/>
<path d="M6847 323 c-9 -8 -9 -156 -1 -177 4 -11 10 -13 18 -7 7 6 10 41 8
100 -3 84 -8 101 -25 84z"/>
<path d="M8073 184 c-8 -21 13 -42 28 -27 13 13 5 43 -11 43 -6 0 -13 -7 -17
-16z"/>
    </g>
  </g>
</svg>
