<?xml version="1.0" encoding="UTF-8" standalone="no"?>
<svg
   xmlns:dc="http://purl.org/dc/elements/1.1/"
   xmlns:cc="http://creativecommons.org/ns#"
   xmlns:rdf="http://www.w3.org/1999/02/22-rdf-syntax-ns#"
   xmlns:svg="http://www.w3.org/2000/svg"
   xmlns="http://www.w3.org/2000/svg"
   xmlns:sodipodi="http://sodipodi.sourceforge.net/DTD/sodipodi-0.dtd"
   xmlns:inkscape="http://www.inkscape.org/namespaces/inkscape"
   width="100mm"
   height="100mm"
   viewBox="0 0 182.73871 112.5292"
   version="1.1"
   id="svg8"
   inkscape:version="1.0.2 (e86c8708, 2021-01-15)"
   sodipodi:docname="antigravity.svg">
  <defs
     id="defs2" />
  <sodipodi:namedview
     id="base"
     pagecolor="#ffffff"
     bordercolor="#666666"
     borderopacity="1.0"
     inkscape:pageopacity="0.0"
     inkscape:pageshadow="2"
     inkscape:zoom="1.979899"
     inkscape:cx="320.59641"
     inkscape:cy="237.31984"
     inkscape:document-units="mm"
     inkscape:current-layer="layer1"
     inkscape:document-rotation="0"
     showgrid="false"
     fit-margin-top="100"
     fit-margin-left="100"
     fit-margin-right="100"
     fit-margin-bottom="100"
     inkscape:window-width="2056"
     inkscape:window-height="1286"
     inkscape:window-x="0"
     inkscape:window-y="43"
     inkscape:window-maximized="0" />
  <metadata
     id="metadata5">
    <rdf:RDF>
      <cc:Work
         rdf:about="">
        <dc:format>image/svg+xml</dc:format>
        <dc:type
           rdf:resource="http://purl.org/dc/dcmitype/StillImage" />
        <dc:title></dc:title>
      </cc:Work>
    </rdf:RDF>
  </metadata>

    <g
       id="python">
      <path
         id="path883-5"
         style="fill:#000000;stroke-width:0.352777"
         d="m 162.48816,113.774 c -0.32993,0.01 -0.66895,0.0809 -1.00718,0.22117 -1.52889,0.63389 -1.86592,4.0989 -0.51211,5.26687 0.8285,0.71477 2.17472,0.97716 2.93264,0.57153 0.50399,-0.26971 0.64854,-0.22133 0.64854,0.21756 0,0.85878 -0.68427,1.95706 -1.80868,2.90319 -0.55747,0.46907 -1.01337,1.01158 -1.01337,1.20561 0,0.66886 2.29468,-1.53627 3.00808,-2.89078 l 0.71469,-1.35754 0.80925,1.1808 c 0.71184,1.03888 0.76407,1.34348 0.43356,2.5337 -0.56448,2.03291 -0.49645,2.23299 0.76688,2.25413 0.63059,0.0106 1.86108,0.30195 2.7342,0.6475 2.0038,0.79305 2.75173,0.47262 0.86972,-0.37259 -1.03149,-0.46323 -1.19561,-0.63088 -0.6258,-0.63768 0.4251,-0.005 0.88513,-0.19089 1.02267,-0.41341 0.18007,-0.29137 -0.20894,-0.35322 -1.38958,-0.22015 l -1.63917,0.185 -0.5023,-1.69033 c -0.27605,-0.92955 -0.76554,-2.09253 -1.08779,-2.58434 l -0.58601,-0.894 2.58641,0.14573 2.5864,0.14572 -2.11666,-0.45371 c -4.131,-0.88581 -3.93375,-0.77411 -3.77393,-2.14303 0.25153,-2.15452 -1.26883,-3.87495 -3.05046,-3.82095 z m 0.093,0.5581 c 0.59001,-1.9e-4 1.15489,0.35176 1.65313,1.04232 1.08969,1.51029 1.13245,2.29317 0.17725,3.24838 -0.9447,0.94471 -1.34466,1.02718 -2.57607,0.53123 -1.45502,-0.58603 -1.5046,-3.83467 -0.0703,-4.6023 0.27462,-0.14698 0.54779,-0.21954 0.81597,-0.21963 z m 4.66173,9.56014 c 0.0187,-0.004 0.0384,-0.004 0.0584,0 0.0229,0.004 0.0471,0.0139 0.0713,0.0289 0.19403,0.11992 0.35244,0.44646 0.35244,0.72605 0,0.2796 -0.15841,0.5085 -0.35244,0.5085 -0.19404,0 -0.35295,-0.32706 -0.35295,-0.72657 0,-0.30587 0.0926,-0.51115 0.22324,-0.53692 z m -7.97419,0.20516 c -0.57549,0 -2.34249,3.86783 -2.98121,6.52621 -0.32633,1.35819 -0.65961,2.66789 -0.74052,2.91042 -0.0809,0.24254 9.9e-4,0.44132 0.18138,0.44132 0.18046,0 0.49515,-0.67503 0.6997,-1.49965 0.74551,-3.00544 1.21401,-4.36175 2.19367,-6.35 0.54971,-1.11566 0.84101,-2.0283 0.64698,-2.0283 z m 11.20139,12.15274 c -0.17064,0.0278 -0.27544,0.54911 -0.27544,1.4087 0,0.88457 0.15892,1.60869 0.35295,1.60869 0.19403,0 0.35244,-0.62595 0.35244,-1.39061 0,-0.76466 -0.15841,-1.48825 -0.35244,-1.60817 -0.0269,-0.0166 -0.0531,-0.0226 -0.0775,-0.0186 z m -19.29598,0.35864 c -0.21712,0.006 -0.37374,0.0394 -0.43667,0.10232 -0.1662,0.16624 -0.19899,1.28519 -0.0734,2.48719 0.21698,2.07596 0.83354,3.09466 0.83354,1.37717 0,-0.58321 0.34593,-0.96549 1.24282,-1.37201 1.16709,-0.52899 1.26435,-0.52423 1.5875,0.0796 0.18933,0.35377 0.34468,0.97119 0.34468,1.37201 0,0.40081 0.15841,0.72916 0.35244,0.72916 0.19402,0 0.35295,-0.25955 0.35295,-0.57619 0,-0.88421 1.40225,-2.95176 2.00194,-2.95176 0.43735,0 0.48982,0.31769 0.29094,1.76372 -0.14661,1.06568 -0.10805,1.76423 0.0977,1.76423 0.18724,0 0.44594,-0.79411 0.57464,-1.76423 0.1967,-1.48287 0.35189,-1.76372 0.97513,-1.76372 0.67463,0 0.72216,0.14135 0.52607,1.572 -0.122,0.8901 -0.066,1.66456 0.12867,1.7849 0.18917,0.11691 0.34365,-0.096 0.34365,-0.47284 0,-0.38854 0.30533,-0.76509 0.70539,-0.86972 0.5612,-0.14675 0.7059,-0.0107 0.7059,0.66456 0,0.4669 0.1584,0.84905 0.35243,0.84905 0.19599,0 0.35295,-0.94074 0.35295,-2.11667 0,-1.17592 -0.15696,-2.11666 -0.35295,-2.11666 -0.19403,0 -0.35243,0.37956 -0.35243,0.84387 0,1.23465 -0.98649,1.483 -1.125,0.28319 -0.10455,-0.90569 -0.20775,-0.95299 -2.17093,-0.99426 -1.94915,-0.041 -2.09722,0.0164 -2.73109,1.05834 l -0.67025,1.10174 -0.42375,-1.1219 c -0.34548,-0.91481 -0.71339,-1.19496 -1.99522,-1.51773 -0.54544,-0.13734 -1.07577,-0.20481 -1.43764,-0.19534 z m 17.96221,0.18913 c -0.37229,0 -0.4627,0.55556 -0.3731,2.29289 0.0539,1.04638 0.0442,1.04157 -0.86455,-0.4408 -0.50551,-0.82462 -1.0691,-1.49913 -1.25212,-1.49913 -0.18303,0 -0.33228,0.9525 -0.33228,2.11666 0,1.17593 0.15644,2.11667 0.35243,2.11667 0.19403,0 0.35946,-0.67503 0.36846,-1.49965 l 0.0155,-1.49914 0.73432,1.41129 c 0.94295,1.81225 0.97536,1.84078 1.36529,1.22421 0.44187,-0.69873 0.43016,-4.223 -0.0139,-4.223 z m -17.65474,0.4377 c 0.50415,5.3e-4 1.42679,0.45616 1.42679,0.79737 0,0.78985 -1.36195,0.88623 -1.60714,0.11369 -0.1215,-0.38274 -0.15993,-0.75677 -0.0853,-0.83147 0.0553,-0.0553 0.14927,-0.0797 0.26561,-0.0796 z m 12.82764,0.10439 c -0.28902,0.01 -0.5874,0.13199 -0.86868,0.38654 -0.75023,0.67896 -0.89469,2.92368 -0.23099,3.58738 0.96008,0.96008 2.75177,-0.0782 2.75177,-1.59474 0,-1.43078 -0.785,-2.40906 -1.6521,-2.37918 z m -0.22065,0.51728 c 0.0128,-0.004 0.0248,-0.004 0.0357,5.2e-4 0.0401,0.0174 0.0657,0.0988 0.0677,0.26355 0.003,0.24254 0.20395,0.40145 0.44648,0.35295 0.28532,-0.0571 0.4408,0.34576 0.4408,1.14153 0,0.82997 -0.17751,1.26379 -0.54622,1.3348 -0.74848,0.14414 -1.04159,-0.22446 -1.03559,-1.30069 0.004,-0.69649 0.39854,-1.72865 0.59118,-1.79266 z m 6.83214,2.46807 c -0.4448,0 -0.76296,0.55067 -0.48111,0.83251 0.39729,0.39729 0.81339,0.2422 0.81339,-0.30335 0,-0.29104 -0.14971,-0.52916 -0.33228,-0.52916 z" />
    </g>

</svg>
